<svg width="973" height="1396" viewBox="0 0 973 1396" fill="none" xmlns="http://www.w3.org/2000/svg">
<path fill-rule="evenodd" clip-rule="evenodd" d="M322.887 42.5432C391.927 46.606 466.298 -2.08097 522.425 38.3268C582.06 81.2592 601.758 164.774 594.195 237.865C587.224 305.236 531.661 350.884 485.002 399.98C436.373 451.15 393.476 523.988 322.887 523.344C252.477 522.702 216.238 443.932 163.701 397.051C105.212 344.858 16.1202 315.144 2.96657 237.865C-11.2169 154.536 26.2511 57.4207 98.3958 13.374C165.349 -27.503 244.577 37.9349 322.887 42.5432Z" fill="#E3EFFF"/>
<path fill-rule="evenodd" clip-rule="evenodd" d="M691.46 835.17C758.227 843.437 795.623 908.762 843.023 956.506C890.123 1003.95 948.604 1042.65 962.389 1108.07C979.227 1187.97 980.121 1281.29 923.953 1340.56C867.095 1400.56 774.107 1392.37 691.46 1393.97C606.342 1395.62 516.627 1402.47 449.796 1349.73C376.321 1291.75 319.07 1201.12 329.155 1108.07C338.747 1019.57 425.959 967.22 497.058 913.666C555.087 869.957 619.362 826.242 691.46 835.17Z" fill="#E3EFFF"/>
</svg>
