<svg width="32" height="32" viewBox="0 0 32 32" fill="none" xmlns="http://www.w3.org/2000/svg">
<g clip-path="url(#clip0_348_716)">
<path d="M16.0001 -0.0332031C7.15909 -0.0332031 -0.0349121 7.1588 -0.0349121 16.0008C-0.0349121 24.8428 7.15909 32.0348 16.0001 32.0348C24.8411 32.0348 32.0351 24.8428 32.0351 16.0008C32.0351 7.1588 24.8411 -0.0332031 16.0001 -0.0332031ZM16.0001 30.9668C7.74809 30.9668 1.03509 24.2528 1.03509 16.0008C1.03509 7.7488 7.74809 1.0348 16.0001 1.0348C24.2521 1.0348 30.9651 7.7488 30.9651 16.0008C30.9651 24.2528 24.2521 30.9668 16.0001 30.9668Z" fill="#324CD6"/>
<path d="M19.5 7.00004H16.832C13.434 6.96604 13 9.06904 13 11.345V13H11.5C11.4322 12.991 11.3632 12.9977 11.2985 13.0196C11.2337 13.0415 11.1748 13.0781 11.1264 13.1265C11.0781 13.1748 11.0415 13.2337 11.0196 13.2985C10.9976 13.3633 10.991 13.4322 11 13.5V16.5C10.991 16.5678 10.9976 16.6368 11.0196 16.7016C11.0415 16.7664 11.0781 16.8253 11.1264 16.8736C11.1748 16.922 11.2337 16.9586 11.2985 16.9805C11.3632 17.0024 11.4322 17.0091 11.5 17H13V24.5C12.9917 24.568 12.999 24.6369 13.0214 24.7016C13.0437 24.7662 13.0806 24.8249 13.1291 24.8732C13.1777 24.9214 13.2366 24.9579 13.3014 24.9799C13.3662 25.0019 13.4351 25.0088 13.503 25H16.558C16.853 25.034 17.092 24.795 16.998 24.5L17 17H19.5C19.5678 17.0091 19.6368 17.0024 19.7016 16.9805C19.7664 16.9586 19.8252 16.922 19.8736 16.8736C19.922 16.8253 19.9585 16.7664 19.9804 16.7016C20.0024 16.6368 20.0091 16.5678 20 16.5V13.5C20.0091 13.4322 20.0024 13.3633 19.9804 13.2985C19.9585 13.2337 19.922 13.1748 19.8736 13.1265C19.8252 13.0781 19.7664 13.0415 19.7016 13.0196C19.6368 12.9977 19.5678 12.991 19.5 13H16.997L17 11.5C17.097 10.861 17.097 10.965 17.69 11H19.479C19.618 10.969 19.766 10.986 19.87 10.885C19.974 10.784 20.034 10.646 19.999 10.5V7.50004C20.0082 7.4323 20.0017 7.36334 19.9799 7.29854C19.9581 7.23374 19.9216 7.17485 19.8733 7.12645C19.8251 7.07806 19.7662 7.04147 19.7015 7.01955C19.6367 6.99762 19.5678 6.99095 19.5 7.00004V7.00004ZM18.965 9.94404L17.711 9.89604C16.158 9.89604 16.028 10.739 16.028 11.602L16.024 13.498C16.0239 13.5683 16.0376 13.6378 16.0644 13.7027C16.0912 13.7676 16.1305 13.8266 16.1801 13.8763C16.2297 13.926 16.2886 13.9654 16.3534 13.9923C16.4183 14.0192 16.4878 14.033 16.558 14.033H19V15.965H16.56C16.4183 15.965 16.2824 16.0213 16.1821 16.1214C16.0818 16.2215 16.0253 16.3573 16.025 16.499L16.024 24H14V16.5C14 16.205 13.799 15.966 13.503 15.966H12V14.034H13.503C13.5732 14.0341 13.6427 14.0204 13.7075 13.9937C13.7724 13.9669 13.8313 13.9276 13.881 13.878C13.981 13.777 13.999 13.641 13.999 13.499V11.344C13.999 9.10204 14.452 8.03404 16.831 8.03404H18.964V9.94404H18.965Z" fill="#324CD6"/>
</g>
<defs>
<clipPath id="clip0_348_716">
<rect width="32" height="32" fill="white"/>
</clipPath>
</defs>
</svg>
