<svg width="24" height="24" viewBox="0 0 24 24" fill="none" xmlns="http://www.w3.org/2000/svg">
<path d="M11 16C12.0609 16 13.0783 15.5786 13.8284 14.8284C14.5786 14.0783 15 13.0609 15 12C15 10.9391 14.5786 9.92172 13.8284 9.17157C13.0783 8.42143 12.0609 8 11 8C9.93913 8 8.92172 8.42143 8.17157 9.17157C7.42143 9.92172 7 10.9391 7 12C7 13.0609 7.42143 14.0783 8.17157 14.8284C8.92172 15.5786 9.93913 16 11 16V16Z" stroke="#324CD6" stroke-width="1.5" stroke-linecap="round" stroke-linejoin="round"/>
<path d="M3 16V8C3 6.67392 3.52678 5.40215 4.46447 4.46447C5.40215 3.52678 6.67392 3 8 3H16C17.3261 3 18.5979 3.52678 19.5355 4.46447C20.4732 5.40215 21 6.67392 21 8V16C21 17.3261 20.4732 18.5979 19.5355 19.5355C18.5979 20.4732 17.3261 21 16 21H8C6.67392 21 5.40215 20.4732 4.46447 19.5355C3.52678 18.5979 3 17.3261 3 16Z" stroke="#324CD6" stroke-width="1.5"/>
<path d="M17.5 6.50905L17.51 6.49805" stroke="#324CD6" stroke-width="1.5" stroke-linecap="round" stroke-linejoin="round"/>
</svg>
