<svg width="399" height="1006" viewBox="0 0 399 1006" fill="none" xmlns="http://www.w3.org/2000/svg">
<path fill-rule="evenodd" clip-rule="evenodd" d="M179.943 -17.7832C218.419 -15.757 259.865 -40.0378 291.144 -19.886C324.378 1.52493 335.356 43.1749 331.141 79.6262C327.256 113.225 296.291 135.99 270.289 160.475C243.188 185.994 219.282 222.319 179.943 221.998C140.704 221.678 120.508 182.394 91.2296 159.014C58.634 132.985 8.98368 118.166 1.65325 79.6262C-6.2511 38.0688 14.6296 -10.3636 54.8353 -32.3303C92.1478 -52.7161 136.301 -20.0814 179.943 -17.7832Z" fill="#E3EFFF"/>
<path fill-rule="evenodd" clip-rule="evenodd" d="M256.469 694.65C293.662 699.247 314.494 735.566 340.898 762.11C367.135 788.488 399.713 810.006 407.392 846.376C416.771 890.8 417.27 942.683 385.981 975.637C354.307 1009 302.508 1004.44 256.469 1005.33C209.053 1006.25 159.076 1010.06 121.848 980.736C80.9178 948.5 49.0255 898.111 54.6436 846.376C59.9865 797.175 108.569 768.068 148.175 738.293C180.501 713.991 216.306 689.687 256.469 694.65Z" fill="#E3EFFF"/>
</svg>
