<?xml version="1.0" encoding="utf-8"?>
<!-- Generator: Adobe Illustrator 26.0.1, SVG Export Plug-In . SVG Version: 6.00 Build 0)  -->
<svg version="1.1" id="Layer_1" xmlns="http://www.w3.org/2000/svg" xmlns:xlink="http://www.w3.org/1999/xlink" x="0px" y="0px"
	 viewBox="0 0 1366 768" style="enable-background:new 0 0 1366 768;" xml:space="preserve">
<style type="text/css">
	.st0{fill:#EFD748;}
	.st1{fill:#ED3415;stroke:#000000;stroke-width:2.3039;stroke-miterlimit:10;}
	.st2{fill:#ED3415;stroke:#000000;stroke-width:3.7462;stroke-miterlimit:10;}
	.st3{fill:#A5A50A;stroke:#000000;stroke-width:3.7462;stroke-miterlimit:10;}
	.st4{fill:none;stroke:#000000;stroke-width:6.4574;stroke-miterlimit:10;}
	.st5{fill:#F29C09;}
	.st6{fill:#F29C09;stroke:#000000;stroke-width:3.2242;stroke-miterlimit:10;}
	.st7{fill:#F29C09;stroke:#000000;stroke-width:2.6815;stroke-miterlimit:10;}
	.st8{fill:#F29C09;stroke:#000000;stroke-width:3.573;stroke-miterlimit:10;}
	.st9{fill:#07A09C;}
	.st10{fill:#11086D;}
	.st11{fill:#061466;}
	.st12{font-family:'AkiraExpanded-SuperBold';}
	.st13{font-size:86.3857px;}
</style>
<g>
	<rect x="-5.86" y="0.14" class="st0" width="1370.71" height="769.71"/>
	<path d="M1364.71,0.29v769.42H-5.71V0.29H1364.71 M1365,0H-6v770h1371V0L1365,0z"/>
</g>
<g>
	<path class="st1" d="M670.96,123.39"/>
	<path class="st1" d="M670.96,123.39"/>
	<g>
		<path class="st2" d="M917.3,150.57"/>
		<path class="st3" d="M876.74,151.75"/>
		<path class="st4" d="M926,187.83"/>
		<path class="st5" d="M728.49,584.97"/>
		<g>
			<path class="st6" d="M758.92,46"/>
			<path class="st7" d="M484.98,429.96"/>
			<path class="st7" d="M484.98,231.63"/>
			<path class="st6" d="M758.81,91.02"/>
			<path class="st8" d="M827.73,93.46"/>
			<path class="st6" d="M716.65,90.89"/>
			<path class="st6" d="M758.83,75.76"/>
			<path class="st6" d="M716.6,105.03"/>
			<path class="st8" d="M827.7,105.16"/>
			<path class="st8" d="M827.78,73.94"/>
			<path class="st8" d="M827.63,132.7"/>
			<path class="st6" d="M758.79,101.91"/>
			<path class="st5" d="M554.01,526.32"/>
			<path class="st5" d="M562.28,468.35"/>
			<path class="st5" d="M498.71,389.15"/>
			<path class="st5" d="M498.71,426.59"/>
			<path class="st5" d="M498.71,347.39"/>
			<path class="st5" d="M428.61,347.39"/>
			<path class="st5" d="M428.61,347.39"/>
			<path class="st5" d="M488.07,389.15"/>
			<path class="st5" d="M508.54,347.39"/>
			<path class="st5" d="M506.44,426.59"/>
			<path class="st5" d="M467.35,389.15"/>
			<path class="st5" d="M485.76,426.59"/>
			<path class="st5" d="M524.65,426.59"/>
			<path class="st5" d="M506.29,389.15"/>
			<path class="st5" d="M456.56,162.33"/>
			<path class="st5" d="M456.66,197.85"/>
			<line class="st5" x1="589.78" y1="321.17" x2="589.73" y2="311.18"/>
			<line class="st5" x1="589.68" y1="281.97" x2="589.68" y2="281.54"/>
			<polygon class="st9" points="774.47,244.43 764.09,262.06 758.02,272.26 753.7,279.52 745.27,293.78 730.32,319.04 
				724.45,328.92 721.79,333.51 706.94,358.56 700.62,369.24 694.7,379.28 682.25,400.33 679.49,404.97 657.41,442.25 
				657.16,442.68 638.35,474.46 623.85,498.92 623.85,498.92 616.02,512.16 596.05,545.91 590.28,534.43 590.28,534.43 
				577.23,508.42 558.37,470.98 554.55,463.45 554.55,463.4 541.61,437.66 524.5,403.58 524.5,399.79 522.59,399.79 520.69,396 
				501.82,358.51 502.22,357.92 501.52,357.92 488.77,332.61 483,321.07 484.66,318.24 481.55,318.24 463.08,281.5 464.79,278.61 
				461.63,278.61 456.86,269.05 446.33,248.22 449.24,243.36 456.76,243.36 480.9,243.47 485.61,243.47 488.57,243.47 
				522.24,243.58 524.15,247.32 524.15,251.54 524.15,251.54 508.04,278.72 498.61,278.72 502.97,287.32 518.58,318.35 
				521.79,324.81 524.3,329.83 524.3,329.83 538.5,358.03 540.66,362.25 554.4,389.59 559.57,399.9 561.58,403.9 578.34,437.23 
				590.08,460.62 597.15,474.72 619.53,436.96 623.7,429.91 638.3,405.19 641.31,400.17 657.26,373.2 660.63,367.48 665.99,358.46 
				681.75,331.75 689.38,318.93 694.49,310.28 702.92,296.02 712.76,279.41 694.54,279.36 694.44,279.15 684.11,258.53 
				676.83,244.11 692.64,244.17 694.34,244.17 720.34,244.22 724.3,244.27 733.58,244.27 755.21,244.38 757.97,244.38 			"/>
			<line class="st5" x1="456.56" y1="162.33" x2="455.36" y2="162.33"/>
			<line class="st5" x1="694.04" y1="123.51" x2="693.14" y2="123.51"/>
			<path class="st5" d="M502.97,289.87"/>
			<path class="st5" d="M446.43,177.45"/>
			<path class="st5" d="M455.36,162.33"/>
			<line class="st5" x1="524.5" y1="406.14" x2="522.59" y2="402.34"/>
			<line class="st5" x1="501.82" y1="361.06" x2="501.52" y2="360.47"/>
			<line class="st5" x1="483" y1="323.62" x2="481.55" y2="320.79"/>
			<line class="st5" x1="463.08" y1="284.05" x2="461.63" y2="281.16"/>
			<polygon class="st10" points="828.71,155.39 826.96,151.92 826.96,158.33 823.9,163.56 806.39,193.15 800.52,203.03 
				791.53,203.03 772.22,202.98 759.52,202.92 766.4,191.39 782.95,163.4 757.77,163.3 752.25,163.3 741.96,163.3 724.1,163.19 
				713.06,163.19 713.06,163.19 705.58,163.13 694.14,163.13 678.24,163.08 660.12,163.03 660.07,163.03 656.71,162.97 
				634.69,162.92 623.04,162.87 623.14,202.5 623.19,217.88 623.19,225.3 623.3,246.45 623.35,281.64 623.4,295.96 623.4,301.99 
				623.4,302.05 623.45,321.27 623.55,360.85 614.72,360.85 589.88,360.74 589.88,358.66 589.78,321.17 594.75,321.17 
				589.73,311.18 589.68,281.97 589.93,281.54 589.68,281.54 589.58,246.34 589.53,228.66 589.53,212.96 589.48,202.39 
				589.38,162.76 578.24,162.71 556.36,162.65 553.85,162.65 534.99,162.6 523.9,162.55 514.97,162.55 498.61,162.44 498.61,162.44 
				488.37,162.44 480.14,162.44 456.56,162.33 456.56,160.3 455.36,162.33 438.8,162.28 446.43,177.45 456.66,197.85 456.66,201.91 
				431.97,201.85 421.74,201.8 408.64,175.79 401.77,162.17 381.85,122.49 418.83,122.6 440.1,122.71 456.46,122.76 460.22,122.76 
				478.74,122.81 488.27,122.87 495.05,122.87 521.99,122.97 523.85,122.97 536.39,122.97 553.75,123.08 558.37,123.08 
				575.58,123.13 589.28,123.19 601.62,123.24 614.77,123.24 622.99,123.29 642.56,123.35 642.56,123.35 656.66,123.4 658.32,123.4 
				683.51,123.51 693.14,123.51 694.04,125.38 694.04,123.51 724,123.61 728.97,123.61 732.33,123.61 757.67,123.72 765.39,123.72 
				771.46,123.77 791.33,123.83 806.34,123.88 812.86,123.88 826.86,123.93 847.28,123.99 			"/>
		</g>
		<text transform="matrix(0.9502 0 0 1 288.9995 624.4219)" class="st11 st12 st13">techvilla</text>
	</g>
</g>
</svg>
